<?xml version="1.0" encoding="UTF-8" standalone="no"?>
<svg
   width="75"
   height="32"
   viewBox="0 0 75 32"
   version="1.1"
   id="svg5"
   xmlns="http://www.w3.org/2000/svg"
   xmlns:svg="http://www.w3.org/2000/svg">
  <defs
     id="defs5" />
  <!-- Generator: Sketch 55 (78076) - https://sketchapp.com -->
  <title
     id="title1">matrix logo white</title>
  <desc
     id="desc1">Created with Sketch.</desc>
  <g
     id="layer1"
     transform="matrix(0.87378048,0,0,0.82616074,2.5448148,0.8476165)">
    <rect
       style="fill:#0d1117;fill-opacity:1"
       id="rect61"
       width="84.709991"
       height="40.755386"
       x="-2.2305219"
       y="-2.0380654" />
  </g>
  <g
     id="layer2">
    <g
       id="Page-1"
       stroke="none"
       stroke-width="1"
       fill="none"
       fill-rule="evenodd">
      <g
         id="matrix-logo-white"
         fill="#ffffff"
         fill-rule="nonzero">
        <polygon
           id="Path"
           points="0.094721871,31.981769 0.094721871,9.495549e-05 3.1294248,9.495549e-05 3.1294248,0.73220178 0.93631479,0.73220178 0.93631479,31.249567 3.1294248,31.249567 3.1294248,31.981769 " />
        <path
           d="m 9.3857143,10.406647 v 1.544356 h 0.0439 c 0.4113148,-0.587869 0.9067317,-1.04432 1.4871047,-1.367929 0.579994,-0.323038 1.244849,-0.485222 1.993711,-0.485222 0.719469,0 1.376833,0.140059 1.971523,0.419228 0.59488,0.279644 1.046587,0.772083 1.355025,1.478172 0.337548,-0.49994 0.796461,-0.941293 1.376834,-1.323679 0.579993,-0.382196 1.266561,-0.573721 2.059797,-0.573721 0.602181,0 1.159988,0.07369 1.674463,0.220771 0.513717,0.147086 0.95433,0.382386 1.321555,0.705899 0.366846,0.323799 0.653192,0.746635 0.859229,1.268321 0.205468,0.522635 0.308439,1.15105 0.308439,1.88667 v 7.633092 l -3.128382,-9.5e-5 v -6.464 c 0,-0.382196 -0.0146,-0.742551 -0.04409,-1.081068 -0.02968,-0.338041 -0.110082,-0.632024 -0.242257,-0.882421 -0.132269,-0.249828 -0.327117,-0.44857 -0.583786,-0.595751 -0.257048,-0.146516 -0.605973,-0.220487 -1.046492,-0.220487 -0.440518,0 -0.796744,0.08508 -1.068489,0.253626 -0.271934,0.169401 -0.484703,0.390173 -0.63878,0.661935 -0.154172,0.272427 -0.257048,0.581128 -0.308344,0.926956 -0.05167,0.345448 -0.07718,0.694884 -0.07718,1.047834 v 6.353471 h -3.128097 v -6.397626 c 0,-0.338231 -0.0077,-0.672949 -0.02181,-1.003679 -0.01498,-0.33111 -0.07718,-0.636202 -0.187547,-0.915846 -0.110177,-0.279169 -0.293837,-0.503644 -0.55079,-0.673045 -0.257048,-0.168545 -0.635177,-0.253626 -1.134482,-0.253626 -0.147061,0 -0.341625,0.03314 -0.583692,0.09951 -0.242351,0.06618 -0.477497,0.19143 -0.704962,0.374979 -0.227939,0.184024 -0.4223133,0.44876 -0.5838809,0.794113 -0.1616625,0.345828 -0.2423515,0.797816 -0.2423515,1.356629 v 6.618492 l -3.1280025,9.5e-5 V 10.406647 Z"
           id="path1" />
        <path
           d="m 25.841719,12.083561 c 0.322851,-0.485508 0.734261,-0.875015 1.233755,-1.169472 0.499115,-0.294077 1.06062,-0.503549 1.684987,-0.6287 0.624084,-0.124867 1.252055,-0.187632 1.883534,-0.187632 0.572882,0 1.152781,0.04064 1.740265,0.121258 0.58739,0.08119 1.123578,0.239478 1.608281,0.474492 0.484608,0.235205 0.881037,0.562707 1.18957,0.98165 0.308439,0.419134 0.462611,0.974434 0.462611,1.665804 v 5.934149 c 0,0.515418 0.02939,1.007572 0.08827,1.478172 0.05831,0.470884 0.161283,0.823834 0.308249,1.059038 h -3.172092 c -0.05888,-0.176617 -0.106764,-0.356557 -0.143268,-0.540581 -0.03698,-0.183549 -0.06267,-0.371086 -0.07709,-0.562422 -0.4994,0.514849 -1.087073,0.875205 -1.762168,1.081164 -0.675759,0.205388 -1.366024,0.3087 -2.070986,0.3087 -0.543584,0 -1.050285,-0.06628 -1.520196,-0.198457 C 26.82534,21.768261 26.414309,21.562493 26.061876,21.282564 25.709347,21.003585 25.434,20.65054 25.235738,20.224095 25.037476,19.79765 24.938203,19.289733 24.938203,18.701674 c 0,-0.646932 0.113685,-1.180297 0.341719,-1.599051 0.227466,-0.419418 0.521018,-0.753851 0.881322,-1.004154 0.359639,-0.249923 0.770764,-0.43746 1.233565,-0.562421 0.462515,-0.124867 0.928729,-0.223906 1.398735,-0.297876 0.470007,-0.07331 0.932523,-0.132273 1.387927,-0.176332 0.455215,-0.04425 0.859229,-0.110528 1.211663,-0.198742 0.352528,-0.08821 0.631289,-0.216688 0.837136,-0.385994 0.205278,-0.169116 0.300759,-0.41543 0.286346,-0.739229 0,-0.338041 -0.05499,-0.60667 -0.16517,-0.805127 -0.110082,-0.198457 -0.257048,-0.35314 -0.440519,-0.463383 -0.183659,-0.110243 -0.396618,-0.183834 -0.63878,-0.220771 -0.242446,-0.03627 -0.503381,-0.05508 -0.782048,-0.05508 -0.616877,0 -1.101485,0.132463 -1.454013,0.397199 -0.352339,0.264736 -0.558376,0.706184 -0.616878,1.32368 h -3.128097 c 0.04381,-0.735146 0.227086,-1.345804 0.5506,-1.830837 z m 6.179109,4.423311 c -0.198167,0.06609 -0.41122,0.121069 -0.638685,0.165318 -0.22775,0.04415 -0.466309,0.081 -0.715961,0.110243 -0.249842,0.02972 -0.499494,0.06628 -0.748957,0.110433 -0.235145,0.04378 -0.466403,0.103122 -0.693774,0.176333 -0.227939,0.07397 -0.426201,0.173009 -0.59488,0.29797 -0.169152,0.125056 -0.30493,0.283442 -0.407711,0.474208 -0.102876,0.19124 -0.154172,0.434041 -0.154172,0.728118 0,0.27917 0.0513,0.514849 0.154172,0.705615 0.102781,0.191525 0.242541,0.342219 0.41871,0.452463 0.17617,0.110243 0.381637,0.187632 0.616972,0.231501 0.234672,0.04425 0.477023,0.06628 0.72677,0.06628 0.616783,0 1.0939,-0.102742 1.432017,-0.30889 0.337642,-0.205674 0.587105,-0.452178 0.748957,-0.739229 0.161378,-0.28667 0.260651,-0.576569 0.29744,-0.871121 0.03641,-0.294077 0.05499,-0.529472 0.05499,-0.705899 v -1.169472 c -0.132364,0.11803 -0.297534,0.209851 -0.495891,0.27613 z"
           id="Shape" />
        <path
           d="m 43.883533,10.406647 v 2.095858 h -2.290866 v 5.647857 c 0,0.529187 0.08799,0.882326 0.264349,1.058659 0.17598,0.176522 0.528698,0.264736 1.057396,0.264736 0.176264,0 0.344943,-0.0072 0.506606,-0.02203 0.161472,-0.01443 0.315739,-0.03684 0.462515,-0.06609 v 2.426777 c -0.264348,0.04415 -0.558185,0.0734 -0.881131,0.0884 -0.32304,0.01415 -0.63878,0.02184 -0.947219,0.02184 -0.484608,0 -0.94371,-0.03323 -1.376833,-0.09951 C 40.244943,21.757154 39.863211,21.62877 39.53287,21.43734 39.202339,21.246385 38.941593,20.973957 38.750822,20.621008 38.559671,20.268343 38.46438,19.804865 38.46438,19.230954 v -6.72845 H 36.569943 V 10.406647 H 38.46438 V 6.9871098 h 3.128193 v 3.4195372 z"
           id="path2" />
        <path
           d="m 48.355373,10.406647 v 2.117982 h 0.04409 c 0.146586,-0.353234 0.344753,-0.680166 0.59469,-0.981935 0.249747,-0.301199 0.535904,-0.558813 0.859039,-0.772083 0.322851,-0.21289 0.668173,-0.378397 1.035683,-0.496427 0.366751,-0.11746 0.748862,-0.176522 1.14548,-0.176522 0.205563,0 0.432933,0.03703 0.68287,0.110433 v 2.912285 c -0.147061,-0.02963 -0.323325,-0.05545 -0.528698,-0.07729 -0.205752,-0.02213 -0.403919,-0.03323 -0.59488,-0.03323 -0.572787,0 -1.057395,0.09591 -1.453729,0.28686 -0.396524,0.191241 -0.715866,0.452083 -0.958312,0.783098 -0.242257,0.33111 -0.415203,0.716914 -0.517889,1.158267 -0.102687,0.441068 -0.154077,0.919359 -0.154077,1.434018 V 21.81232 H 45.381542 V 10.406647 Z"
           id="path3" />
        <path
           d="m 54.038875,8.6416142 v -2.581175 h 3.128382 v 2.581175 z m 3.128382,1.7650328 V 21.812415 H 54.038875 V 10.406647 Z"
           id="path4" />
        <polygon
           id="polygon4"
           points="69.811915,10.406647 66.067035,15.745614 70.274715,21.81251 66.705815,21.81251 64.32658,18.216546 61.94725,21.81251 58.444912,21.81251 62.542225,15.811988 58.79725,10.406647 62.365866,10.406647 64.37067,13.384926 66.353382,10.406647 " />
        <polygon
           id="polygon5"
           points="74.93562,9.495549e-05 74.93562,31.981769 71.900727,31.981769 71.900727,31.249567 74.093837,31.249567 74.093837,0.73220178 71.900727,0.73220178 71.900727,9.495549e-05 " />
      </g>
    </g>
  </g>
</svg>
